<?xml version="1.0" encoding="utf-8"?>
<!-- Generator: Adobe Illustrator 20.1.0, SVG Export Plug-In . SVG Version: 6.00 Build 0)  -->
<svg version="1.1" id="Layer_1" xmlns="http://www.w3.org/2000/svg" xmlns:xlink="http://www.w3.org/1999/xlink" x="0px" y="0px"
	 viewBox="0 0 576 87.7" style="enable-background:new 0 0 576 87.7;" xml:space="preserve">
<style type="text/css">
	.st0{fill:#F2CD18;}
</style>
<g>
	<g>
		<path class="st0" d="M442.3,21.8h-16.7c-7.9,0-14.7,6.4-15.8,14.3l-3.2,23c-1.1,7.9,4,14.3,11.9,14.3h16.7
			c7.9,0,15.2-6.4,16.2-14.3l3.2-23C455.7,28.2,450.2,21.8,442.3,21.8z M444.5,36.1l-3.2,23c-0.4,2.6-2.8,4.8-5.4,4.8h-15.4
			c-2.6,0-4-2.1-3.7-4.8l3.2-23c0.4-2.6,2.4-4.8,5-4.8h15.4C443,31.3,444.8,33.4,444.5,36.1z"/>
		<g>
			<path class="st0" d="M40.6,17c2.6,0,4.5,2.1,4.1,4.8L39.2,59c-0.4,2.6-2.8,4.8-5.4,4.8H15.3c-2.6,0-4-2.1-3.7-4.8L17,21.8
				c0.4-2.6,2.4-4.8,5-4.8h19 M42.4,7.5H22.9c-7.9,0-14.7,6.4-15.8,14.3L1.7,59c-1.1,7.9,4,14.3,11.9,14.3H33
				c7.9,0,15.1-6.4,16.2-14.3l5.4-37.2C55.7,13.9,50.2,7.5,42.4,7.5L42.4,7.5z"/>
		</g>
		<path class="st0" d="M367.1,51.9l19.4,0.5c8,0,15.3-6.4,16.4-14.2l2.1-15.9c1.1-8-6.3-14.7-14.1-14.7h-19.3
			c-7.8,0-13.6,6.7-14.7,14.7l-8.6,62.1c5.9-0.2,10.2-2.7,11-6.3l7.7-55.8c0.4-2.7,3.1-5.2,5.6-5.2h18.1c2.6,0,4.6,2.5,4.2,5.2
			l-2.1,15.9c-0.4,2.5-3,4.7-5.6,4.7h-18.8L367.1,51.9z"/>
		<path class="st0" d="M77.1,22.5l14.9-0.7c8,0,13.6,6.4,12.5,14.2l-3.1,22.6c-1.1,8-8.7,14.7-16.5,14.7H69.5
			c-7.8,0-13.4-6.7-12.4-14.7l7.4-54.9c0,0,4.9-2.3,11-2.3l-7.8,57.3c-0.4,2.7,1.6,5.2,4.1,5.2h13.9c2.6,0,5.3-2.5,5.7-5.2L94.5,36
			c0.4-2.5-1.7-4.7-4.3-4.7H75.6L77.1,22.5z"/>
		<path class="st0" d="M194.7,21.8H178c-7.9,0-14.7,6.4-15.8,14.3L159,59c-1.1,7.9,4.5,14.3,11.9,14.3c19.2,0,28.4-2,28.4-2l1.2-7.5
			h-27.2c-2.6,0-4-2.1-3.7-4.8l1-7.1c5,0,27.9,0,30.4,0c2.8,0,4.1-2.2,4.4-4.9c0.4-2.7,1.6-11,1.6-11
			C208.1,28.2,202.6,21.8,194.7,21.8z M196.5,36.1l-1,7.1h-23.7l1-7.1c0.4-2.6,2.4-4.8,5-4.8h14.6C195,31.3,196.8,33.4,196.5,36.1z"
			/>
		<path class="st0" d="M324.7,21.8H308c-7.9,0-14.7,6.4-15.8,14.3L289,59c-1.1,7.9,4.5,14.3,11.8,14.3c19.2,0,28.4-2,28.4-2l1.2-7.5
			h-27.2c-2.6,0-4-2.1-3.7-4.8l1-7.1c5,0,27.9,0,30.4,0c2.8,0,4.1-2.2,4.5-4.9c0.4-2.7,1.6-11,1.6-11
			C338.1,28.2,332.6,21.8,324.7,21.8z M326.4,36.1l-1,7.1h-23.7l1-7.1c0.4-2.6,2.4-4.8,5-4.8h14.6C325,31.3,326.8,33.4,326.4,36.1z"
			/>
		<path class="st0" d="M533.6,21.9l-1.4,9.5h25.1c0,0,4.6,0,9.9,0c5.4,0,7.2-9.5,7.2-9.5H533.6z M540.7,73.3h10.7l5.5-38.6h-10.7
			L540.7,73.3z"/>
		<path class="st0" d="M109,59c-1.1,7.9,4,14.3,11.9,14.3h15.4c7.9,0,15.2-6.4,16.2-14.3c0,0,1-6.2,1.1-6.9c0.6-4.6-2.3-7.5-6.7-8
			c-2.9-0.4-23.2-2.9-24.2-3.1c-1.1-0.2-0.9-1.9-0.9-1.9l0.3-3.1c0.4-2.6,2.4-4.8,5-4.8h14.6c2.6,0,4.5,2.2,4.1,4.8
			c0,0,0,1.4,1.5,2.2c1.4,0.8,8,0.6,8,0.6l0.4-2.8c1.1-7.9-4.4-14.3-12.3-14.3h-15.4c-7.9,0-14.7,6.4-15.8,14.3c0,0-0.6,4.3-0.7,5
			c-0.5,4.2,2.3,8.4,6.6,9.2c2.7,0.5,23.1,3,24.2,3.1c1.1,0.1,1,1.2,1,1.2l-0.7,4.5c-0.4,2.6-2.8,4.8-5.4,4.8h-14.6
			c-2.6,0-3.9-2.2-3.7-4.8c0.2-1.9-3-3-9.5-3L109,59z"/>
		<path class="st0" d="M495.7,24.5l-0.6-2.6h-7.2l-7.3,51.4h10.2l5.5-39.7c0,0,13.4-0.6,15.4-0.8c2.2-0.2,4.5,1.1,4.1,3.6
			c-0.3,2.4-5,36.9-5,36.9H521c0,0,5.2-39,5.4-41.4c0.3-4.8-4.6-10.1-11.8-9.2C512.5,22.9,495.7,24.5,495.7,24.5z"/>
		<path class="st0" d="M477.2,21.8c-7.3,0-10.5,2.2-11.1,6.4c-0.6,4.2-6.4,45.1-6.4,45.1h10.4L477.2,21.8z"/>
		<g>
			<path class="st0" d="M288.9,21.8c-7.8,0-11.1,0.7-12.6,4.8c-1.8,5.2-10.9,32.5-10.9,32.5l-7.1-37.2h-10.7l11,51.5
				c0,0,4.3,0,6.9,0c2.5,0,4.2-1.9,5.4-5C272.1,65.1,288.9,21.8,288.9,21.8z"/>
		</g>
	</g>
	<path class="st0" d="M229.9,23.1c-1.4,0.5-3,2-4.2,4.1l-1.2-5.4h-7.9l-7.3,51.5h9.9l5-35.8v0c0,0,3.5-5.8,13.4-5.8c4.8,0,5-10,5-10
		S234,21.6,229.9,23.1z"/>
</g>
</svg>
